<svg width="40" height="40" viewBox="0 0 45 45" fill="none" xmlns="http://www.w3.org/2000/svg">
<path d="M39.2759 15.5719C39.257 14.1518 38.9911 12.7458 38.4903 11.4169C38.0559 10.2959 37.3925 9.27785 36.5424 8.42779C35.6924 7.57772 34.6743 6.91433 33.5534 6.47998C32.2415 5.98752 30.8556 5.72125 29.4546 5.69248C27.6509 5.61186 27.079 5.58936 22.5003 5.58936C17.9215 5.58936 17.3346 5.58936 15.544 5.69248C14.1437 5.72146 12.7584 5.98773 11.4471 6.47998C10.326 6.91402 9.30779 7.57731 8.45769 8.42742C7.60759 9.27752 6.9443 10.2957 6.51025 11.4169C6.01681 12.7277 5.75111 14.1133 5.72463 15.5137C5.644 17.3194 5.61963 17.8912 5.61963 22.47C5.61963 27.0487 5.61963 27.6337 5.72463 29.4262C5.75275 30.8287 6.01713 32.2125 6.51025 33.5269C6.94502 34.6477 7.60881 35.6654 8.4592 36.5152C9.30958 37.3649 10.3279 38.0279 11.449 38.4619C12.7567 38.9741 14.1422 39.2594 15.5459 39.3056C17.3515 39.3862 17.9234 39.4106 22.5021 39.4106C27.0809 39.4106 27.6678 39.4106 29.4584 39.3056C30.8593 39.278 32.2453 39.0124 33.5571 38.52C34.6778 38.0851 35.6956 37.4216 36.5456 36.5716C37.3956 35.7216 38.0592 34.7038 38.494 33.5831C38.9871 32.2706 39.2515 30.8869 39.2796 29.4825C39.3603 27.6787 39.3846 27.1069 39.3846 22.5262C39.3809 17.9475 39.3809 17.3662 39.2759 15.5719ZM22.489 31.1287C17.7003 31.1287 13.8209 27.2494 13.8209 22.4606C13.8209 17.6719 17.7003 13.7925 22.489 13.7925C24.7879 13.7925 26.9927 14.7057 28.6183 16.3313C30.2439 17.9569 31.1571 20.1617 31.1571 22.4606C31.1571 24.7595 30.2439 26.9643 28.6183 28.5899C26.9927 30.2155 24.7879 31.1287 22.489 31.1287ZM31.5021 15.4931C31.2366 15.4934 30.9737 15.4412 30.7283 15.3397C30.483 15.2383 30.2601 15.0894 30.0723 14.9016C29.8846 14.7139 29.7357 14.491 29.6342 14.2456C29.5327 14.0003 29.4806 13.7374 29.4809 13.4719C29.4809 13.2065 29.5331 12.9438 29.6347 12.6987C29.7362 12.4536 29.885 12.2309 30.0726 12.0433C30.2602 11.8557 30.4829 11.7069 30.7281 11.6053C30.9732 11.5038 31.2359 11.4515 31.5012 11.4515C31.7665 11.4515 32.0292 11.5038 32.2743 11.6053C32.5194 11.7069 32.7422 11.8557 32.9298 12.0433C33.1174 12.2309 33.2662 12.4536 33.3677 12.6987C33.4692 12.9438 33.5215 13.2065 33.5215 13.4719C33.5215 14.5894 32.6178 15.4931 31.5021 15.4931Z" fill="#130043"/>
<path d="M22.489 28.0913C25.5987 28.0913 28.1196 25.5704 28.1196 22.4607C28.1196 19.351 25.5987 16.8301 22.489 16.8301C19.3793 16.8301 16.8584 19.351 16.8584 22.4607C16.8584 25.5704 19.3793 28.0913 22.489 28.0913Z" fill="#130043"/>
</svg>
